<svg xmlns="http://www.w3.org/2000/svg" width="848.87" height="829.63" viewBox="0 0 848.87 829.63"><g id="bda1730b-1884-47ec-8cd1-151e2dfba222" data-name="Layer 2"><g id="a1480005-284e-483f-8f9f-bf055abe1de8" data-name="Layer 1"><rect width="848.87" height="829.63" fill="#fff"/><rect x="10.82" y="10.82" width="827.23" height="807.99" fill="#fff" stroke="#fbbe16" stroke-miterlimit="10" stroke-width="4.81"/><rect x="227.1" y="217.63" width="69.74" height="470.73" fill="#fbbe16" opacity="0.17"/><rect x="563.77" y="217.63" width="69.74" height="470.73" fill="#fbbe16" opacity="0.17"/><text transform="translate(202.93 180.32)" font-size="28.86" font-family="SweetSansPro-Heavy, Sweet Sans Pro" font-weight="800">SE<tspan x="41.38" y="0" letter-spacing="0.02em">L</tspan><tspan x="60.66" y="0">AIN</tspan></text><rect x="164.58" y="143.08" width="187.57" height="57.71" fill="none" stroke="#000" stroke-miterlimit="10" stroke-width="4.81"/><polyline points="359.37 145.49 359.37 208.01 166.99 208.01" fill="none" stroke="#fbbe16" stroke-miterlimit="10" stroke-width="4.81"/><text transform="translate(517.95 180.32)" font-size="28.86" font-family="SweetSansPro-Heavy, Sweet Sans Pro" font-weight="800"><tspan letter-spacing="-0.04em">P</tspan><tspan x="20.03" y="0" letter-spacing="0em">A</tspan><tspan x="41.7" y="0" letter-spacing="-0.08em">L</tspan><tspan x="58.32" y="0">VELIN</tspan></text><rect x="501.24" y="143.08" width="187.57" height="57.71" fill="none" stroke="#000" stroke-miterlimit="10" stroke-width="4.81"/><polyline points="696.03 145.49 696.03 208.01 503.65 208.01" fill="none" stroke="#fbbe16" stroke-miterlimit="10" stroke-width="4.81"/><polyline points="174.2 234.46 174.2 258.51 688.81 258.51 688.81 244.58" fill="none" stroke="#000" stroke-miterlimit="10" stroke-width="4.81"/><polygon points="677.13 246.14 700.5 246.14 688.81 234.46 677.13 246.14"/><line x1="174.2" y1="297.48" x2="174.2" y2="301.09" fill="none" stroke="#000" stroke-miterlimit="10" stroke-width="4.81"/><polyline points="174.2 307.81 174.2 311.41 177.81 311.41" fill="none" stroke="#000" stroke-miterlimit="10" stroke-width="4.81"/><line x1="184.95" y1="311.41" x2="681.63" y2="311.41" fill="none" stroke="#000" stroke-miterlimit="10" stroke-width="4.81" stroke-dasharray="7.15 7.15"/><polyline points="685.21 311.41 688.81 311.41 688.81 307.81" fill="none" stroke="#000" stroke-miterlimit="10" stroke-width="4.81"/><line x1="688.81" y1="302.19" x2="688.81" y2="293.78" fill="none" stroke="#000" stroke-miterlimit="10" stroke-width="4.81" stroke-dasharray="5.61 5.61"/><line x1="688.81" y1="290.97" x2="688.81" y2="287.37" fill="none" stroke="#000" stroke-miterlimit="10" stroke-width="4.81"/><polygon points="185.89 299.05 162.51 299.05 174.2 287.37 185.89 299.05"/><polyline points="174.2 340.27 174.2 364.32 688.81 364.32 688.81 350.38" fill="none" stroke="#000" stroke-miterlimit="10" stroke-width="4.81"/><polygon points="677.13 351.95 700.5 351.95 688.81 340.27 677.13 351.95"/><line x1="174.2" y1="403.29" x2="174.2" y2="406.9" fill="none" stroke="#000" stroke-miterlimit="10" stroke-width="4.81"/><polyline points="174.2 413.61 174.2 417.22 177.81 417.22" fill="none" stroke="#000" stroke-miterlimit="10" stroke-width="4.81"/><line x1="184.95" y1="417.22" x2="681.63" y2="417.22" fill="none" stroke="#000" stroke-miterlimit="10" stroke-width="4.81" stroke-dasharray="7.15 7.15"/><polyline points="685.21 417.22 688.81 417.22 688.81 413.61" fill="none" stroke="#000" stroke-miterlimit="10" stroke-width="4.81"/><line x1="688.81" y1="408" x2="688.81" y2="399.59" fill="none" stroke="#000" stroke-miterlimit="10" stroke-width="4.81" stroke-dasharray="5.61 5.61"/><line x1="688.81" y1="396.78" x2="688.81" y2="393.17" fill="none" stroke="#000" stroke-miterlimit="10" stroke-width="4.81"/><polygon points="185.89 404.86 162.51 404.86 174.2 393.17 185.89 404.86"/><polyline points="174.2 446.08 174.2 470.13 688.81 470.13 688.81 456.19" fill="none" stroke="#000" stroke-miterlimit="10" stroke-width="4.81"/><polygon points="677.13 457.76 700.5 457.76 688.81 446.08 677.13 457.76"/><line x1="174.2" y1="509.1" x2="174.2" y2="512.7" fill="none" stroke="#000" stroke-miterlimit="10" stroke-width="4.81"/><polyline points="174.2 519.42 174.2 523.03 177.81 523.03" fill="none" stroke="#000" stroke-miterlimit="10" stroke-width="4.81"/><line x1="184.95" y1="523.03" x2="681.63" y2="523.03" fill="none" stroke="#000" stroke-miterlimit="10" stroke-width="4.81" stroke-dasharray="7.15 7.15"/><polyline points="685.21 523.03 688.81 523.03 688.81 519.42" fill="none" stroke="#000" stroke-miterlimit="10" stroke-width="4.81"/><line x1="688.81" y1="513.81" x2="688.81" y2="505.39" fill="none" stroke="#000" stroke-miterlimit="10" stroke-width="4.81" stroke-dasharray="5.61 5.61"/><line x1="688.81" y1="502.59" x2="688.81" y2="498.98" fill="none" stroke="#000" stroke-miterlimit="10" stroke-width="4.81"/><polygon points="185.89 510.66 162.51 510.66 174.2 498.98 185.89 510.66"/><polyline points="174.2 551.89 174.2 575.93 688.81 575.93 688.81 562" fill="none" stroke="#000" stroke-miterlimit="10" stroke-width="4.81"/><polygon points="677.13 563.57 700.5 563.57 688.81 551.89 677.13 563.57"/><line x1="174.2" y1="614.91" x2="174.2" y2="618.51" fill="none" stroke="#000" stroke-miterlimit="10" stroke-width="4.81"/><polyline points="174.2 625.23 174.2 628.84 177.81 628.84" fill="none" stroke="#000" stroke-miterlimit="10" stroke-width="4.81"/><line x1="184.95" y1="628.84" x2="681.63" y2="628.84" fill="none" stroke="#000" stroke-miterlimit="10" stroke-width="4.81" stroke-dasharray="7.15 7.15"/><polyline points="685.21 628.84 688.81 628.84 688.81 625.23" fill="none" stroke="#000" stroke-miterlimit="10" stroke-width="4.81"/><line x1="688.81" y1="619.62" x2="688.81" y2="611.2" fill="none" stroke="#000" stroke-miterlimit="10" stroke-width="4.81" stroke-dasharray="5.61 5.61"/><line x1="688.81" y1="608.4" x2="688.81" y2="604.79" fill="none" stroke="#000" stroke-miterlimit="10" stroke-width="4.81"/><polygon points="185.89 616.47 162.51 616.47 174.2 604.79 185.89 616.47"/><rect x="193.44" y="241.68" width="139.47" height="31.26" fill="#fff" stroke="#000" stroke-miterlimit="10" stroke-width="4.81"/><text transform="translate(211.8 262.71)" font-size="19.24" font-family="SweetSansPro-Heavy, Sweet Sans Pro" font-weight="800">HTTP GET</text><rect x="525.29" y="400.39" width="139.47" height="31.26" fill="#fff" stroke="#000" stroke-miterlimit="10" stroke-width="4.81"/><text transform="translate(555.68 421.42)" font-size="19.24" font-family="SweetSansPro-Heavy, Sweet Sans Pro" font-weight="800">200 OK</text><rect x="525.96" y="293.98" width="139.47" height="31.26" fill="#fff" stroke="#000" stroke-miterlimit="10" stroke-width="4.81"/><text transform="translate(556.35 315.01)" font-size="19.24" font-family="SweetSansPro-Heavy, Sweet Sans Pro" font-weight="800">200 OK</text><rect x="525.29" y="506.2" width="139.47" height="31.26" fill="#fff" stroke="#000" stroke-miterlimit="10" stroke-width="4.81"/><text transform="translate(555.68 527.23)" font-size="19.24" font-family="SweetSansPro-Heavy, Sweet Sans Pro" font-weight="800">200 OK</text><rect x="525.29" y="612" width="139.47" height="31.26" fill="#fff" stroke="#000" stroke-miterlimit="10" stroke-width="4.81"/><text transform="translate(555.68 633.03)" font-size="19.24" font-family="SweetSansPro-Heavy, Sweet Sans Pro" font-weight="800">200 OK</text><rect x="193.44" y="347.48" width="139.47" height="31.26" fill="#fff" stroke="#000" stroke-miterlimit="10" stroke-width="4.81"/><text transform="translate(211.8 368.51)" font-size="19.24" font-family="SweetSansPro-Heavy, Sweet Sans Pro" font-weight="800">HTTP GET</text><rect x="193.44" y="453.29" width="139.47" height="31.26" fill="#fff" stroke="#000" stroke-miterlimit="10" stroke-width="4.81"/><text transform="translate(211.8 474.32)" font-size="19.24" font-family="SweetSansPro-Heavy, Sweet Sans Pro" font-weight="800">HTTP GET</text><rect x="193.44" y="559.1" width="139.47" height="31.26" fill="#fff" stroke="#000" stroke-miterlimit="10" stroke-width="4.81"/><text transform="translate(211.8 580.13)" font-size="19.24" font-family="SweetSansPro-Heavy, Sweet Sans Pro" font-weight="800">HTTP GET</text><text transform="translate(341.48 249.15)" font-size="12.02" fill="#fbbe16" font-family="SweetSansPro-Light, Sweet Sans Pro" font-weight="300">https:<tspan x="34.28" y="0" letter-spacing="-0.19em">/</tspan><tspan x="38.09" y="0">/fullstac</tspan><tspan x="87.41" y="0" letter-spacing="-0.02em">k</tspan><tspan x="93.82" y="0">-exampleap</tspan><tspan x="162.81" y="0" letter-spacing="-0.01em">p</tspan><tspan x="170.2" y="0">.he</tspan><tspan x="187.93" y="0" letter-spacing="-0.03em">r</tspan><tspan x="192.31" y="0">okuap</tspan><tspan x="228.38" y="0" letter-spacing="-0.01em">p</tspan><tspan x="235.78" y="0">.com</tspan><tspan x="264.02" y="0" letter-spacing="-0.02em">/</tspan><tspan x="269.84" y="0">spa</tspan></text><text transform="translate(489.76 302.05)" font-size="12.02" fill="#fbbe16" font-family="SweetSansPro-Light, Sweet Sans Pro" font-weight="300">html</text><text transform="translate(495.74 405.46)" font-size="12.02" fill="#fbbe16" font-family="SweetSansPro-Light, Sweet Sans Pro" font-weight="300">css</text><text transform="translate(458.58 511.26)" font-size="12.02" fill="#fbbe16" font-family="SweetSansPro-Light, Sweet Sans Pro" font-weight="300">j<tspan x="3.09" y="0" letter-spacing="-0.01em">a</tspan><tspan x="10.17" y="0">vascript</tspan></text><text transform="translate(491.3 617.07)" font-size="12.02" fill="#fbbe16" font-family="SweetSansPro-Light, Sweet Sans Pro" font-weight="300">json</text><text transform="translate(341.48 352.55)" font-size="12.02" fill="#fbbe16" font-family="SweetSansPro-Light, Sweet Sans Pro" font-weight="300"><tspan letter-spacing="-0.01em">/</tspan><tspan x="5.9" y="0">main.css</tspan></text><text transform="translate(341.48 458.36)" font-size="12.02" fill="#fbbe16" font-family="SweetSansPro-Light, Sweet Sans Pro" font-weight="300"><tspan letter-spacing="-0.02em">/</tspan><tspan x="5.82" y="0">spa.js</tspan></text><text transform="translate(341.48 564.17)" font-size="12.02" fill="#fbbe16" font-family="SweetSansPro-Light, Sweet Sans Pro" font-weight="300"><tspan letter-spacing="-0.02em">/</tspan><tspan x="5.79" y="0">data.json</tspan></text><text transform="translate(682.27 804.64)" font-size="12.02" font-family="SweetSansPro-Light, Sweet Sans Pro" font-weight="300" opacity="0.34">ML/fullstac<tspan x="67.99" y="0" letter-spacing="-0.02em">k</tspan><tspan x="74.5" y="0">open</tspan><tspan x="103.87" y="0" letter-spacing="-0.04em">-</tspan><tspan x="108.17" y="0">2020</tspan></text><polygon points="117.88 528.3 95.13 553.06 107.81 554.23 97.96 577.74 121.16 548.14 108.48 546.97 117.88 528.3" fill="#fbbe16" opacity="0.17"/><text transform="translate(108.78 557.11)" font-size="12.02" font-family="SweetSansPro-Heavy, Sweet Sans Pro" font-weight="800">SCRIPT</text><polygon points="122.69 634.11 99.94 658.86 112.62 660.04 102.77 683.54 125.97 653.95 113.29 652.78 122.69 634.11" fill="#fbbe16" opacity="0.17"/><text transform="translate(113.59 662.92)" font-size="12.02" font-family="SweetSansPro-Heavy, Sweet Sans Pro" font-weight="800">SIVUN RENDE<tspan x="89.27" y="0" letter-spacing="-0.02em">R</tspan><tspan x="98.37" y="0" letter-spacing="-0.01em">รถ</tspan><tspan x="105.72" y="0" letter-spacing="0em">INTI N</tspan><tspan x="144.16" y="0" letter-spacing="-0.05em">ร</tspan><tspan x="152.53" y="0" letter-spacing="0.02em">Y</tspan><tspan x="160.68" y="0" letter-spacing="-0.09em">T</tspan><tspan x="167.45" y="0" letter-spacing="-0.01em">รถ</tspan><tspan x="174.81" y="0">LLE</tspan></text></g></g></svg>