<svg xmlns="http://www.w3.org/2000/svg" width="850" height="940" viewBox="0 0 850 940"><g id="a9839bd8-2af7-432d-bfc8-af3ece0f0bcd" data-name="Layer 2"><g id="beb40b8e-2b39-4c8a-a63e-8ca45e27ac5b" data-name="Layer 1"><rect width="850" height="940" fill="#fff"/><rect x="12.6" y="10.62" width="826" height="918" fill="#fff" stroke="#ff4893" stroke-miterlimit="10" stroke-width="5.12"/><rect x="227.67" y="217.5" width="69.74" height="579.54" fill="#ff4893" opacity="0.17"/><rect x="564.33" y="217.5" width="69.74" height="579.54" fill="#ff4893" opacity="0.17"/><text transform="translate(203.49 180.2)" font-size="28.86" font-family="SweetSansPro-Heavy, Sweet Sans Pro" font-weight="800">SE<tspan x="41.38" y="0" letter-spacing="0.02em">L</tspan><tspan x="60.66" y="0" letter-spacing="0em">AIN</tspan></text><rect x="165.15" y="142.96" width="187.57" height="57.71" fill="none" stroke="#000" stroke-miterlimit="10" stroke-width="4.81"/><polyline points="359.93 145.36 359.93 207.88 167.55 207.88" fill="none" stroke="#ff4893" stroke-miterlimit="10" stroke-width="4.81"/><text transform="translate(518.51 180.2)" font-size="28.86" font-family="SweetSansPro-Heavy, Sweet Sans Pro" font-weight="800"><tspan letter-spacing="-0.04em">P</tspan><tspan x="20.03" y="0">A</tspan><tspan x="41.7" y="0" letter-spacing="-0.08em">L</tspan><tspan x="58.32" y="0">VELIN</tspan></text><rect x="501.81" y="142.96" width="187.57" height="57.71" fill="none" stroke="#000" stroke-miterlimit="10" stroke-width="4.81"/><polyline points="696.59 145.36 696.59 207.88 504.21 207.88" fill="none" stroke="#ff4893" stroke-miterlimit="10" stroke-width="4.81"/><polyline points="174.76 234.34 174.76 258.38 689.38 258.38 689.38 244.45" fill="none" stroke="#000" stroke-miterlimit="10" stroke-width="4.81"/><polygon points="677.69 246.02 701.06 246.02 689.38 234.34 677.69 246.02"/><line x1="174.77" y1="297.36" x2="174.77" y2="300.96" fill="none" stroke="#000" stroke-miterlimit="10" stroke-width="4.81"/><polyline points="174.76 307.68 174.76 311.29 178.37 311.29" fill="none" stroke="#000" stroke-miterlimit="10" stroke-width="4.81"/><line x1="185.52" y1="311.29" x2="682.2" y2="311.29" fill="none" stroke="#000" stroke-miterlimit="10" stroke-width="4.81" stroke-dasharray="7.15 7.15"/><polyline points="685.77 311.29 689.38 311.29 689.38 307.68" fill="none" stroke="#000" stroke-miterlimit="10" stroke-width="4.81"/><line x1="689.38" y1="302.07" x2="689.38" y2="293.65" fill="none" stroke="#000" stroke-miterlimit="10" stroke-width="4.81" stroke-dasharray="5.61 5.61"/><line x1="689.38" y1="290.85" x2="689.38" y2="287.24" fill="none" stroke="#000" stroke-miterlimit="10" stroke-width="4.81"/><polygon points="186.45 298.92 163.08 298.92 174.76 287.24 186.45 298.92"/><polyline points="174.76 340.14 174.76 364.19 689.38 364.19 689.38 350.26" fill="none" stroke="#000" stroke-miterlimit="10" stroke-width="4.81"/><polygon points="677.69 351.83 701.06 351.83 689.38 340.14 677.69 351.83"/><line x1="174.77" y1="403.16" x2="174.77" y2="406.77" fill="none" stroke="#000" stroke-miterlimit="10" stroke-width="4.81"/><polyline points="174.76 413.49 174.76 417.1 178.37 417.1" fill="none" stroke="#000" stroke-miterlimit="10" stroke-width="4.81"/><line x1="185.52" y1="417.1" x2="682.2" y2="417.1" fill="none" stroke="#000" stroke-miterlimit="10" stroke-width="4.81" stroke-dasharray="7.15 7.15"/><polyline points="685.77 417.1 689.38 417.1 689.38 413.49" fill="none" stroke="#000" stroke-miterlimit="10" stroke-width="4.81"/><line x1="689.38" y1="407.88" x2="689.38" y2="399.46" fill="none" stroke="#000" stroke-miterlimit="10" stroke-width="4.81" stroke-dasharray="5.61 5.61"/><line x1="689.38" y1="396.66" x2="689.38" y2="393.05" fill="none" stroke="#000" stroke-miterlimit="10" stroke-width="4.81"/><polygon points="186.45 404.73 163.08 404.73 174.76 393.05 186.45 404.73"/><polyline points="174.76 445.95 174.76 470 689.38 470 689.38 456.07" fill="none" stroke="#000" stroke-miterlimit="10" stroke-width="4.81"/><polygon points="677.69 457.63 701.06 457.63 689.38 445.95 677.69 457.63"/><line x1="174.77" y1="508.97" x2="174.77" y2="512.58" fill="none" stroke="#000" stroke-miterlimit="10" stroke-width="4.81"/><polyline points="174.76 519.3 174.76 522.9 178.37 522.9" fill="none" stroke="#000" stroke-miterlimit="10" stroke-width="4.81"/><line x1="185.52" y1="522.9" x2="682.2" y2="522.9" fill="none" stroke="#000" stroke-miterlimit="10" stroke-width="4.81" stroke-dasharray="7.15 7.15"/><polyline points="685.77 522.9 689.38 522.9 689.38 519.3" fill="none" stroke="#000" stroke-miterlimit="10" stroke-width="4.81"/><line x1="689.38" y1="513.69" x2="689.38" y2="505.27" fill="none" stroke="#000" stroke-miterlimit="10" stroke-width="4.81" stroke-dasharray="5.61 5.61"/><line x1="689.38" y1="502.46" x2="689.38" y2="498.86" fill="none" stroke="#000" stroke-miterlimit="10" stroke-width="4.81"/><polygon points="186.45 510.54 163.08 510.54 174.76 498.86 186.45 510.54"/><polyline points="174.76 551.76 174.76 575.81 689.38 575.81 689.38 561.88" fill="none" stroke="#000" stroke-miterlimit="10" stroke-width="4.81"/><polygon points="677.69 563.44 701.06 563.44 689.38 551.76 677.69 563.44"/><line x1="174.77" y1="614.78" x2="174.77" y2="618.39" fill="none" stroke="#000" stroke-miterlimit="10" stroke-width="4.81"/><polyline points="174.76 625.11 174.76 628.71 178.37 628.71" fill="none" stroke="#000" stroke-miterlimit="10" stroke-width="4.81"/><line x1="185.52" y1="628.71" x2="682.2" y2="628.71" fill="none" stroke="#000" stroke-miterlimit="10" stroke-width="4.81" stroke-dasharray="7.15 7.15"/><polyline points="685.77 628.71 689.38 628.71 689.38 625.11" fill="none" stroke="#000" stroke-miterlimit="10" stroke-width="4.81"/><line x1="689.38" y1="619.49" x2="689.38" y2="611.08" fill="none" stroke="#000" stroke-miterlimit="10" stroke-width="4.81" stroke-dasharray="5.61 5.61"/><line x1="689.38" y1="608.27" x2="689.38" y2="604.66" fill="none" stroke="#000" stroke-miterlimit="10" stroke-width="4.81"/><polygon points="186.45 616.35 163.08 616.35 174.76 604.66 186.45 616.35"/><polyline points="174.76 657.57 174.76 681.62 689.38 681.62 689.38 667.68" fill="none" stroke="#000" stroke-miterlimit="10" stroke-width="4.81"/><polygon points="677.69 669.25 701.06 669.25 689.38 657.57 677.69 669.25"/><line x1="174.77" y1="720.59" x2="174.77" y2="724.2" fill="none" stroke="#000" stroke-miterlimit="10" stroke-width="4.81"/><polyline points="174.76 730.91 174.76 734.52 178.37 734.52" fill="none" stroke="#000" stroke-miterlimit="10" stroke-width="4.81"/><line x1="185.52" y1="734.52" x2="682.2" y2="734.52" fill="none" stroke="#000" stroke-miterlimit="10" stroke-width="4.81" stroke-dasharray="7.15 7.15"/><polyline points="685.77 734.52 689.38 734.52 689.38 730.91" fill="none" stroke="#000" stroke-miterlimit="10" stroke-width="4.81"/><line x1="689.38" y1="725.3" x2="689.38" y2="716.89" fill="none" stroke="#000" stroke-miterlimit="10" stroke-width="4.81" stroke-dasharray="5.61 5.61"/><line x1="689.38" y1="714.08" x2="689.38" y2="710.47" fill="none" stroke="#000" stroke-miterlimit="10" stroke-width="4.81"/><polygon points="186.45 722.16 163.08 722.16 174.76 710.47 186.45 722.16"/><rect x="194" y="241.55" width="139.47" height="31.26" fill="#fff" stroke="#000" stroke-miterlimit="10" stroke-width="4.81"/><text transform="translate(207.56 262.58)" font-size="19.24" font-family="SweetSansPro-Heavy, Sweet Sans Pro" font-weight="800">HTTP PO<tspan x="89.05" y="0" letter-spacing="-0.01em">S</tspan><tspan x="102.9" y="0">T</tspan></text><rect x="525.86" y="296.86" width="139.47" height="31.26" fill="#fff" stroke="#000" stroke-miterlimit="10" stroke-width="4.81"/><text transform="translate(539.41 317.89)" font-size="14.43" font-family="SweetSansPro-Heavy, Sweet Sans Pro" font-weight="800">302 REDIR<tspan x="81.22" y="0" letter-spacing="-0.02em">E</tspan><tspan x="91.22" y="0" letter-spacing="0em">CT</tspan></text><rect x="525.86" y="400.26" width="139.47" height="31.26" fill="#fff" stroke="#000" stroke-miterlimit="10" stroke-width="4.81"/><text transform="translate(556.24 421.29)" font-size="19.24" font-family="SweetSansPro-Heavy, Sweet Sans Pro" font-weight="800">200 OK</text><rect x="525.86" y="506.07" width="139.47" height="31.26" fill="#fff" stroke="#000" stroke-miterlimit="10" stroke-width="4.81"/><text transform="translate(556.24 527.1)" font-size="19.24" font-family="SweetSansPro-Heavy, Sweet Sans Pro" font-weight="800">200 OK</text><rect x="525.86" y="611.88" width="139.47" height="31.26" fill="#fff" stroke="#000" stroke-miterlimit="10" stroke-width="4.81"/><text transform="translate(556.24 632.91)" font-size="19.24" font-family="SweetSansPro-Heavy, Sweet Sans Pro" font-weight="800">200 OK</text><rect x="525.86" y="720.09" width="139.47" height="31.26" fill="#fff" stroke="#000" stroke-miterlimit="10" stroke-width="4.81"/><text transform="translate(556.24 741.12)" font-size="19.24" font-family="SweetSansPro-Heavy, Sweet Sans Pro" font-weight="800">200 OK</text><rect x="194" y="347.36" width="139.47" height="31.26" fill="#fff" stroke="#000" stroke-miterlimit="10" stroke-width="4.81"/><text transform="translate(212.37 368.39)" font-size="19.24" font-family="SweetSansPro-Heavy, Sweet Sans Pro" font-weight="800">HTTP GET</text><rect x="194" y="453.17" width="139.47" height="31.26" fill="#fff" stroke="#000" stroke-miterlimit="10" stroke-width="4.81"/><text transform="translate(212.37 474.2)" font-size="19.24" font-family="SweetSansPro-Heavy, Sweet Sans Pro" font-weight="800">HTTP GET</text><rect x="194" y="558.98" width="139.47" height="31.26" fill="#fff" stroke="#000" stroke-miterlimit="10" stroke-width="4.81"/><text transform="translate(212.37 580)" font-size="19.24" font-family="SweetSansPro-Heavy, Sweet Sans Pro" font-weight="800">HTTP GET</text><rect x="194" y="667.19" width="139.47" height="31.26" fill="#fff" stroke="#000" stroke-miterlimit="10" stroke-width="4.81"/><text transform="translate(212.37 688.22)" font-size="19.24" font-family="SweetSansPro-Heavy, Sweet Sans Pro" font-weight="800">HTTP GET</text><text transform="translate(342.04 249.02)" font-size="12.02" fill="#ff4893" font-family="SweetSansPro-Light, Sweet Sans Pro" font-weight="300">https:<tspan x="34.28" y="0" letter-spacing="-0.19em">/</tspan><tspan x="38.09" y="0">/fullstac</tspan><tspan x="87.41" y="0" letter-spacing="-0.02em">k</tspan><tspan x="93.82" y="0">-exampleap</tspan><tspan x="162.81" y="0" letter-spacing="-0.01em">p</tspan><tspan x="170.21" y="0">.he</tspan><tspan x="187.94" y="0" letter-spacing="-0.03em">r</tspan><tspan x="192.32" y="0">okuap</tspan><tspan x="228.39" y="0" letter-spacing="-0.01em">p</tspan><tspan x="235.78" y="0">.com</tspan><tspan x="264.03" y="0" letter-spacing="-0.01em">/</tspan><tspan x="269.93" y="0">new_note</tspan></text><text transform="translate(213.25 301.93)" font-size="12.02" fill="#ff4893" font-family="SweetSansPro-Light, Sweet Sans Pro" font-weight="300">https:<tspan x="34.28" y="0" letter-spacing="-0.19em">/</tspan><tspan x="38.09" y="0">/fullstac</tspan><tspan x="87.41" y="0" letter-spacing="-0.02em">k</tspan><tspan x="93.82" y="0">-exampleap</tspan><tspan x="162.81" y="0" letter-spacing="-0.01em">p</tspan><tspan x="170.21" y="0">.he</tspan><tspan x="187.94" y="0" letter-spacing="-0.03em">r</tspan><tspan x="192.32" y="0">okuap</tspan><tspan x="228.39" y="0" letter-spacing="-0.01em">p</tspan><tspan x="235.78" y="0">.com</tspan><tspan x="264.03" y="0" letter-spacing="-0.01em">/</tspan><tspan x="269.93" y="0">notes</tspan></text><text transform="translate(490.33 405.33)" font-size="12.02" fill="#ff4893" font-family="SweetSansPro-Light, Sweet Sans Pro" font-weight="300">html</text><text transform="translate(496.3 511.14)" font-size="12.02" fill="#ff4893" font-family="SweetSansPro-Light, Sweet Sans Pro" font-weight="300">css</text><text transform="translate(459.15 616.95)" font-size="12.02" fill="#ff4893" font-family="SweetSansPro-Light, Sweet Sans Pro" font-weight="300">j<tspan x="3.09" y="0" letter-spacing="-0.01em">a</tspan><tspan x="10.17" y="0">vascript</tspan></text><text transform="translate(491.87 725.16)" font-size="12.02" fill="#ff4893" font-family="SweetSansPro-Light, Sweet Sans Pro" font-weight="300">json</text><text transform="translate(342.04 352.43)" font-size="12.02" fill="#ff4893" font-family="SweetSansPro-Light, Sweet Sans Pro" font-weight="300"><tspan letter-spacing="-0.01em">/</tspan><tspan x="5.9" y="0">notes</tspan></text><text transform="translate(342.04 458.24)" font-size="12.02" fill="#ff4893" font-family="SweetSansPro-Light, Sweet Sans Pro" font-weight="300"><tspan letter-spacing="-0.01em">/</tspan><tspan x="5.9" y="0">main.css</tspan></text><text transform="translate(342.04 564.04)" font-size="12.02" fill="#ff4893" font-family="SweetSansPro-Light, Sweet Sans Pro" font-weight="300"><tspan letter-spacing="-0.01em">/</tspan><tspan x="5.9" y="0">main.js</tspan></text><text transform="translate(342.04 672.26)" font-size="12.02" fill="#ff4893" font-family="SweetSansPro-Light, Sweet Sans Pro" font-weight="300"><tspan letter-spacing="-0.02em">/</tspan><tspan x="5.8" y="0">data.json</tspan></text><text transform="translate(682.84 915.13)" font-size="12.02" font-family="SweetSansPro-Light, Sweet Sans Pro" font-weight="300" opacity="0.34">ML/fullstac<tspan x="67.99" y="0" letter-spacing="-0.01em">k</tspan><tspan x="74.5" y="0">open</tspan><tspan x="103.87" y="0" letter-spacing="-0.04em">-</tspan><tspan x="108.18" y="0">2020</tspan></text><polygon points="118.45 633.99 95.69 658.74 108.37 659.91 98.52 683.42 121.72 653.83 109.05 652.65 118.45 633.99" fill="#ff4893" opacity="0.17"/><text transform="translate(109.35 662.79)" font-size="12.02" font-family="SweetSansPro-Heavy, Sweet Sans Pro" font-weight="800">SCRIPT</text><polygon points="118.45 739.8 95.69 764.55 108.37 765.72 98.52 789.23 121.72 759.63 109.05 758.46 118.45 739.8" fill="#ff4893" opacity="0.17"/><text transform="translate(109.35 768.6)" font-size="12.02" font-family="SweetSansPro-Heavy, Sweet Sans Pro" font-weight="800">SIVUN RENDE<tspan x="89.27" y="0" letter-spacing="-0.02em">R</tspan><tspan x="98.36" y="0" letter-spacing="-0.01em">รถ</tspan><tspan x="105.72" y="0">INTI N</tspan><tspan x="144.16" y="0" letter-spacing="-0.05em">ร</tspan><tspan x="152.53" y="0" letter-spacing="0.02em">Y</tspan><tspan x="160.68" y="0" letter-spacing="-0.09em">T</tspan><tspan x="167.45" y="0" letter-spacing="-0.01em">รถ</tspan><tspan x="174.81" y="0">LLE</tspan></text></g></g></svg>