<svg xmlns="http://www.w3.org/2000/svg" width="848.87" height="514.61" viewBox="0 0 848.87 514.61"><g id="bf9fd488-b3c1-4e5d-99ef-bdf05491ed18" data-name="Layer 2"><g id="bdb77873-b1d0-4e27-9cf0-6c10936f4f9c" data-name="Layer 1"><rect width="848.87" height="514.61" fill="#fff"/><rect x="10.82" y="10.82" width="827.23" height="492.97" fill="#fff" stroke="aqua" stroke-miterlimit="10" stroke-width="4.81"/><rect x="227.1" y="217.63" width="69.74" height="153.3" fill="aqua" opacity="0.17"/><rect x="563.77" y="217.63" width="69.74" height="153.3" fill="aqua" opacity="0.17"/><text transform="translate(202.93 180.32)" font-size="28.86" font-family="SweetSansPro-Heavy, Sweet Sans Pro" font-weight="800">SE<tspan x="41.38" y="0" letter-spacing="0.02em">L</tspan><tspan x="60.66" y="0">AIN</tspan></text><rect x="164.58" y="143.08" width="187.57" height="57.71" fill="none" stroke="#000" stroke-miterlimit="10" stroke-width="4.81"/><polyline points="359.37 145.49 359.37 208.01 166.99 208.01" fill="none" stroke="aqua" stroke-miterlimit="10" stroke-width="4.81"/><text transform="translate(517.95 180.32)" font-size="28.86" font-family="SweetSansPro-Heavy, Sweet Sans Pro" font-weight="800"><tspan letter-spacing="-0.04em">P</tspan><tspan x="20.03" y="0" letter-spacing="0em">A</tspan><tspan x="41.7" y="0" letter-spacing="-0.08em">L</tspan><tspan x="58.32" y="0">VELIN</tspan></text><rect x="501.24" y="143.08" width="187.57" height="57.71" fill="none" stroke="#000" stroke-miterlimit="10" stroke-width="4.81"/><polyline points="696.03 145.49 696.03 208.01 503.65 208.01" fill="none" stroke="aqua" stroke-miterlimit="10" stroke-width="4.81"/><polyline points="174.2 234.46 174.2 258.51 688.81 258.51 688.81 244.58" fill="none" stroke="#000" stroke-miterlimit="10" stroke-width="4.81"/><polygon points="677.13 246.14 700.5 246.14 688.81 234.46 677.13 246.14"/><line x1="174.2" y1="297.48" x2="174.2" y2="301.09" fill="none" stroke="#000" stroke-miterlimit="10" stroke-width="4.81"/><polyline points="174.2 307.81 174.2 311.41 177.81 311.41" fill="none" stroke="#000" stroke-miterlimit="10" stroke-width="4.81"/><line x1="184.95" y1="311.41" x2="681.63" y2="311.41" fill="none" stroke="#000" stroke-miterlimit="10" stroke-width="4.81" stroke-dasharray="7.15 7.15"/><polyline points="685.21 311.41 688.81 311.41 688.81 307.81" fill="none" stroke="#000" stroke-miterlimit="10" stroke-width="4.81"/><line x1="688.81" y1="302.19" x2="688.81" y2="293.78" fill="none" stroke="#000" stroke-miterlimit="10" stroke-width="4.81" stroke-dasharray="5.61 5.61"/><line x1="688.81" y1="290.97" x2="688.81" y2="287.37" fill="none" stroke="#000" stroke-miterlimit="10" stroke-width="4.81"/><polygon points="185.89 299.05 162.51 299.05 174.2 287.37 185.89 299.05"/><rect x="193.44" y="241.68" width="139.47" height="31.26" fill="#fff" stroke="#000" stroke-miterlimit="10" stroke-width="4.81"/><text transform="translate(206.99 262.71)" font-size="19.24" font-family="SweetSansPro-Heavy, Sweet Sans Pro" font-weight="800">HTTP PO<tspan x="89.05" y="0" letter-spacing="0em">S</tspan><tspan x="102.9" y="0">T</tspan></text><rect x="525.29" y="296.98" width="139.47" height="31.26" fill="#fff" stroke="#000" stroke-miterlimit="10" stroke-width="4.81"/><text transform="translate(538.84 318.01)" font-size="15.63" font-family="SweetSansPro-Heavy, Sweet Sans Pro" font-weight="800">201 CRE<tspan x="65.82" y="0" letter-spacing="-0.07em">A</tspan><tspan x="76.4" y="0">TED</tspan></text><text transform="translate(341.48 248.64)" font-size="11.3" fill="#00deff" font-family="SweetSansPro-Light, Sweet Sans Pro" font-weight="300" letter-spacing="-0.01em">https:<tspan x="31.94" y="0" letter-spacing="-0.19em">/</tspan><tspan x="35.47" y="0">/fullstac</tspan><tspan x="81.32" y="0" letter-spacing="-0.03em">k</tspan><tspan x="87.29" y="0">-exampleap</tspan><tspan x="151.57" y="0" letter-spacing="-0.02em">p</tspan><tspan x="158.47" y="0">.he</tspan><tspan x="174.97" y="0" letter-spacing="-0.03em">r</tspan><tspan x="179.03" y="0" letter-spacing="-0.01em">okuap</tspan><tspan x="212.65" y="0" letter-spacing="-0.02em">p</tspan><tspan x="219.55" y="0">.com</tspan><tspan x="245.87" y="0" letter-spacing="-0.02em">/</tspan><tspan x="251.36" y="0">new_note_spa</tspan></text><text transform="translate(491.3 302.05)" font-size="12.02" fill="#00deff" font-family="SweetSansPro-Light, Sweet Sans Pro" font-weight="300">json</text><text transform="translate(682.27 489.62)" font-size="12.02" font-family="SweetSansPro-Light, Sweet Sans Pro" font-weight="300" opacity="0.34">ML/fullstac<tspan x="67.99" y="0" letter-spacing="-0.02em">k</tspan><tspan x="74.5" y="0">open</tspan><tspan x="103.87" y="0" letter-spacing="-0.04em">-</tspan><tspan x="108.17" y="0">2020</tspan></text><polygon points="117.88 316.69 95.13 341.44 107.81 342.61 97.96 366.12 121.16 336.53 108.48 335.35 117.88 316.69" fill="aqua" opacity="0.17"/><text transform="translate(108.78 345.49)" font-size="12.02" font-family="SweetSansPro-Heavy, Sweet Sans Pro" font-weight="800">SCRIPT -&gt;</text><text transform="translate(178.52 345.49)" font-size="12.02" font-family="SweetSansPro-Heavy, Sweet Sans Pro" font-weight="800">DOM MANIPU<tspan x="85.13" y="0" letter-spacing="0.02em">L</tspan><tspan x="93.16" y="0" letter-spacing="-0.07em">A</tspan><tspan x="101.3" y="0" letter-spacing="0em">TION</tspan></text></g></g></svg>